<svg xmlns="http://www.w3.org/2000/svg" viewBox="0 0 317.9 83.47">
  <defs>
    <style>.cls-420{fill:#f2f2f2;}</style>
  </defs>
  <g id="Layer_2" data-name="Layer 2">
    <g id="Layer_1-2" data-name="Layer 1">
      <path class="cls-420" d="M26.31,42.37c-.9,0-1.81.3-2.72.3s-1.69-.24-2.59-.24c-2.48,0-5,.12-7.56.12-3.81,0-7.68.24-11.54.24C1,42.79.39,42.43.39,41.46s.24-1.75.24-2.66S.39,37,.39,36.08c0-.48.3-.9.3-1.33C.69,32.52.57,30.28.57,28c0-4.23-.24-8.46-.24-12.63,0-1.15.12-2.29.12-3.5,0-2-.43-4-.43-6C0,3.26-.46.54,3,.54,4.13.54,5.28.36,6.43.36H16.1c1.45,0,2.9-.18,4.29-.18.85,0,1.69.18,2.54.18h3c.91,0,1.21.31,1.21,1.21,0,.61-.12,1.21-.12,1.82,0,3-1,2.78-3.63,2.78C20.21,6.17,17,6,13.8,6A36.39,36.39,0,0,0,8,6.29c-.54.06-.6.12-.6.66-.12,1.57-.12,3.14-.24,4.78h.06c0,.72-.25,3.74.54,3.74,4.83,0,9.79-.42,14.63-.42a3.09,3.09,0,0,1,2.53.73,17.38,17.38,0,0,1,.19,3.2,2.5,2.5,0,0,1-.37,1.45c-.42.84-6.52.54-7.67.54-2.78,0-5.62.18-8.4.24-.91.06-1.21.19-1.21,1.09,0,1.76.12,3.45.12,5.14,0,2.12-.24,4.29-.24,6.41,0,.72-.31,2.9.54,2.9,1,0,2.12-.12,3.14-.12.85,0,1.7.12,2.54.12,4.11,0,8.22-.42,12.33-.42,2.24,0,2.54.72,2.54,2.9C28.43,41.16,28.43,42.37,26.31,42.37Z"/>
      <path class="cls-420" d="M66.26,42.37c-.91,0-1.81.3-2.72.3s-1.69-.24-2.6-.24c-2.48,0-5,.12-7.55.12-3.81,0-7.68.24-11.55.24-.9,0-1.51-.36-1.51-1.33s.24-1.75.24-2.66-.24-1.81-.24-2.72c0-.48.3-.9.3-1.33,0-2.23-.12-4.47-.12-6.71,0-4.23-.24-8.46-.24-12.63,0-1.15.12-2.29.12-3.5,0-2-.42-4-.42-6,0-2.66-.48-5.38,3-5.38,1.15,0,2.3-.18,3.45-.18h9.67C57.5.36,59,.18,60.34.18c.84,0,1.69.18,2.54.18h3c.9,0,1.21.31,1.21,1.21,0,.61-.12,1.21-.12,1.82,0,3-1,2.78-3.63,2.78C60.16,6.17,57,6,53.75,6a36.39,36.39,0,0,0-5.8.31c-.55.06-.61.12-.61.66-.12,1.57-.12,3.14-.24,4.78h.06c0,.72-.24,3.74.55,3.74,4.83,0,9.79-.42,14.62-.42a3.1,3.1,0,0,1,2.54.73,18.33,18.33,0,0,1,.18,3.2,2.49,2.49,0,0,1-.36,1.45c-.42.84-6.53.54-7.68.54-2.78,0-5.62.18-8.4.24-.9.06-1.21.19-1.21,1.09,0,1.76.12,3.45.12,5.14,0,2.12-.24,4.29-.24,6.41,0,.72-.3,2.9.55,2.9,1,0,2.11-.12,3.14-.12.85,0,1.69.12,2.54.12,4.11,0,8.22-.42,12.33-.42,2.23,0,2.54.72,2.54,2.9C68.38,41.16,68.38,42.37,66.26,42.37Z"/>
      <path class="cls-420" d="M112.28,21.4a44.85,44.85,0,0,0,0,5.68c0,2.42.06,4.77.06,7.13s.12,5.2-.6,7.49a1.27,1.27,0,0,1-1.33,1,41.33,41.33,0,0,1-4.72-.24A3.07,3.07,0,0,1,103,40.62c-.84-1.7-1.45-1.64-1.87-2.3a43.55,43.55,0,0,0-3.26-4.59c-1.76-2.18-3.21-4.66-4.84-6.89-.66-1-1.45-1.88-2.18-2.85-1.51-2.11-2.9-4.35-4.47-6.46l-.18.12a3.55,3.55,0,0,0-.12.85c0,3,.18,6,.18,8.94,0,1-.3,2-.3,3,0,2.48.42,5,.42,7.5,0,3.14.61,4.89-3.26,4.89a14.85,14.85,0,0,1-2.3-.18,1.15,1.15,0,0,1-1.21-1.33c-.18-2.42-.24-4.9-.24-7.37,0-3.69.18-7.38.18-11s-.42-7.26-.42-10.82c0-.73.12-1.45.12-2.12,0-2.29-.24-4.59-.24-6.83,0-1.69.42-2.47,2.17-2.47,1,0,3.33-.13,3.93.78,1.21,1.87,2.3,3.75,3.51,5.62a17,17,0,0,0,1.09,1.39,95.74,95.74,0,0,1,7.43,11c.66,1.45,6.77,9.73,7.86,10.4a2.54,2.54,0,0,0,.06-.67c0-2.05-.12-4.11-.12-6.1,0-.79.12-1.57.12-2.42v-4c0-1.87-.3-3.81-.3-5.74,0-.48.18-.91.18-1.39s-.18-.91-.18-1.33a65,65,0,0,1,.3-6.83C105.21.3,106.66.06,107.57.06c.6,0,1.14.18,1.75.18s1-.24,1.57-.24A1.11,1.11,0,0,1,112,.91a67.55,67.55,0,0,1,.36,7c.06,1.51.24,3,.24,4.53A89.39,89.39,0,0,1,112.28,21.4Z"/>
      <path class="cls-420" d="M234.57,34.33c-1,2-2.66,2.72-4.17,4.17a3.11,3.11,0,0,1-1.33,1.15,14.74,14.74,0,0,0-2,1.15c-1.75,1.09-6.83,1.93-8.82,1.81v.06h-.18c-.73,0-1.57-.18-2.36-.24a2.51,2.51,0,0,1-1,.12,12.08,12.08,0,0,1-3.38-.54c-2.18-.49-4.53-.73-6.29-2.18a7.82,7.82,0,0,0-.9-.6A8.07,8.07,0,0,1,202,37.35a15.28,15.28,0,0,0-1.39-1.27c-2.84-2.72-4.53-7.31-5.08-11.12A20.34,20.34,0,0,1,195,22.3c0-7,3.69-14.32,9.79-18,4.78-2.9,7.74-4.29,13.3-4.29a11.86,11.86,0,0,1,3.56.54h.18c1,0,1.94.79,2.85,1,.72.18,1.14.67,1.75.85A10.63,10.63,0,0,1,230.76,5l2.3,2.78.18.24c2.29,2.9,5.38,8,5.38,11.72C238.62,27.62,237.89,27.62,234.57,34.33Zm-7.68-23.21c-.36-.24-.42-1-.91-1.27a28,28,0,0,0-4.23-2.23,10,10,0,0,0-4.17-.79,13.31,13.31,0,0,0-8.94,2.9,20.09,20.09,0,0,0-3,3c0,.06,0,.06-.06.06-.55.25-.61,1.09-.85,1.51-1.27,2.36-2.18,3.33-2.3,6.23-.06.79-.06,1.69-.06,2.48,0,2.78,1.94,6.53,3.69,8.58a32.56,32.56,0,0,0,2.66,2.12c1,.9,8.22,2,9.91,2a23.3,23.3,0,0,0,4.53-.85c.55-.12.79-.18,1-.72s1.21-.61,1.57-.91a10.58,10.58,0,0,0,3-2.9c.18-.42.6-.78.54-1.27.54-1.33,2.05-2.9,2.05-4.47C231.36,20.79,230.22,13.54,226.89,11.12Z"/>
      <path class="cls-420" d="M274.75,19.28v6.17a34.67,34.67,0,0,1-.3,3.5c-.18,1.57-.06,3.81-.73,5.26l-.12.24-1,2.48c-.72,1.93-2.78,3.14-4.35,4.17a6.3,6.3,0,0,1-2.9,1.09c-1.21.06-2.23.48-3.44.48-7.62,0-11.12-4.05-12.57-11.06-.49-2.36-.25-5.62-.31-8.1-.06-4.71-.24-9.43-.24-14.08,0-2.12-.3-4.17-.3-6.23,0-3,.3-2.78,3.14-2.78a9.59,9.59,0,0,1,3,.18.8.8,0,0,1,.61.85c.24,3,.42,6.05.42,9.13,0,1-.12,2-.12,3,0,.6.18,1.21.18,1.75s-.18,1.15-.18,1.75c0,2.72.18,5.44.18,8.16,0,4.66.48,10.76,6.47,10.76a10.8,10.8,0,0,0,3.14-.6,2.64,2.64,0,0,0,.91-.91c2.17-4.83,2-7.92,2-13,0-3.87-.42-7.8-.42-11.67,0-1.93-.18-7.37.36-8.88.3-.85,1.75-.73,2.48-.73,5.08,0,3.69,1.45,3.69,5.5a7.75,7.75,0,0,0,.24,2.06c.3,1.08.3,7.07.3,8.58C274.81,17.29,274.75,18.25,274.75,19.28Z"/>
      <path class="cls-420" d="M313.79,34c-.6.9-6.35,5.2-7.37,5.74-3.57,2-9.07,2.78-13.12,2.78-.3,0-.66-.18-1-.18-.54,0-1.08.12-1.63.12A9.55,9.55,0,0,1,288,42c-1.21-.43-.9-2.36-.9-3.39,0-.78.24-1.57.24-2.36,0-2.35-.12-4.65-.12-7,0-.9-.24-1.75-.24-2.6,0-1.2.18-2.41.18-3.62,0-2.9-.31-5.74-.31-8.64,0-2.3.13-4.72.25-7,0-1.08-.12-2.17-.12-3.26,0-2.9.24-3.81,3.44-3.75h3.75a25.74,25.74,0,0,1,18.73,7.92,10.93,10.93,0,0,1,1.51,2.18,22.47,22.47,0,0,1,3.45,12.45C317.9,26.84,316,30.82,313.79,34ZM310.41,20a15,15,0,0,0-1.09-4.24c-2.78-5.19-7.86-8.94-13.9-8.82l-.85.06c-.66,0-.72.12-.79.73v4.05c0,1.69.25,3.32.31,5,.12,2.72.06,5.44.12,8.16,0,1,.12,2,.12,3s-.18,2.24-.18,3.33.12,2.48.18,3.68c.06.79.18.91,1,.91h2c3,0,8.46-3,10.27-5.32,1.58-2.05,3.27-5.07,3.27-7.67A12,12,0,0,0,310.41,20Z"/>
      <path class="cls-420" d="M153.65,37.72a15.49,15.49,0,0,1-2.5,2.24c-3.69,2.12-7.84,2-11.83,1.7a55.66,55.66,0,0,0-7.09.2,58.42,58.42,0,0,0-6.15.9,20.24,20.24,0,0,0-4.42,1c-1.85.77-3.5,2-5.32,2.88-2.22,1-3.09,3.1-4.19,5a1.29,1.29,0,0,0,.45,2c.61.31,1.24,0,1.71-.88a13.79,13.79,0,0,1,6.25-5.86,3.17,3.17,0,0,1,1.08-.13c-.11.33-.21.66-.34,1,0,.11-.15.18-.2.28-.7,1.4-1.43,2.79-2,4.22a1.07,1.07,0,0,0,.52,1.46,1.13,1.13,0,0,0,1.57-.48,6.82,6.82,0,0,0,.51-1c1.57-3,3.4-5.72,6.89-6.91a18.57,18.57,0,0,1,8.11-1.12,21,21,0,0,0,2.38,0l7.48,0a1.05,1.05,0,0,1,.4.16,1.68,1.68,0,0,1-.21.47,13.3,13.3,0,0,1-1.95,1.88,49.37,49.37,0,0,1-6.25,3.8c-3.07,1.41-6.31,2.29-9.59.42a1.09,1.09,0,0,0-1.58.43,1.13,1.13,0,0,0,.44,1.67,12,12,0,0,0,2.27,1,11.86,11.86,0,0,0,5.3.11,3,3,0,0,1,.73.06,2.66,2.66,0,0,1-.22.6c-1.34,2-2.67,4-4.06,6a54.07,54.07,0,0,1-7.33,8.51c-.82.77-.9,1.45-.32,2.06s1.27.43,2-.25c.36-.34.68-.71,1-1a2.39,2.39,0,0,1,.56-.32,1.92,1.92,0,0,1,.11.61c-.12.86-.28,1.72-.42,2.58-.17,1.07.19,1.7,1,1.8s1.29-.42,1.38-1.46a22.89,22.89,0,0,1,2-7.07,53.22,53.22,0,0,1,6.87-11.08,25.43,25.43,0,0,1,3.05-3.49,28.59,28.59,0,0,1,3.58-2.39,4.37,4.37,0,0,1,.71-.28,4,4,0,0,1,0,.85c-.64,3.34-1.38,6.67-1.93,10a77.83,77.83,0,0,1-3.58,15c-.52,1.38-1.2,2.69-1.82,4a1.45,1.45,0,0,0,.38,1.91c.67.33,1.31.06,1.77-.74a2.92,2.92,0,0,0,.14-.31q1.34-3.2,2.68-6.39a3.36,3.36,0,0,1,.41-.6,5.11,5.11,0,0,1,.41.62c.44.79.82,1.62,1.29,2.39a1.24,1.24,0,0,0,1.8.39,1.17,1.17,0,0,0,.17-1.8,9.43,9.43,0,0,1-1.64-5,49,49,0,0,1,.92-12.78c0-.22.25-.4.38-.6a4.33,4.33,0,0,1,.39.62,65,65,0,0,0,2.74,6.21c1.05,1.87,2.52,3.49,3.73,5.27a26,26,0,0,1,3.88,10.24c.24,1.38.41,2.77.64,4.16a1.1,1.1,0,0,0,1.25,1,1.16,1.16,0,0,0,1.09-1.35,3.43,3.43,0,0,0-.07-.56c-.46-2.5-.8-5-1.42-7.47a23.24,23.24,0,0,0-4.07-8.45,41.67,41.67,0,0,1-3.23-4.51c-2.57-4.52-4-9.23-1.88-14.4A12.24,12.24,0,0,1,154,41.31a6.23,6.23,0,0,0,1.49-1.7c.44-.75.85-.88,1.47-.26.19.19.4.34.57.54a14.47,14.47,0,0,1,3.2,9.59c0,1.89-.07,3.79-.13,5.68a59.72,59.72,0,0,0,1.58,14.1A19.46,19.46,0,0,0,165,76a12.55,12.55,0,0,0,5.59,5,2,2,0,0,0,1.28.16c.35-.14.82-.7.76-1a2.05,2.05,0,0,0-.89-1.27,12.89,12.89,0,0,1-6.13-7,2.56,2.56,0,0,1-.06-.74,5.15,5.15,0,0,1,.68.29c1.37.8,2.72,1.63,4.11,2.41a2.31,2.31,0,0,0,1.29.33,1.41,1.41,0,0,0,1-.62,1.86,1.86,0,0,0-.26-1.32c-.17-.27-.62-.4-1-.55-3.71-1.63-6.6-4.12-7.63-8.17a29,29,0,0,1-.74-6.19c-.12-3.63-.05-7.27-.05-10.9a2.26,2.26,0,0,1,.17-.6,2.82,2.82,0,0,1,.51.38,31.76,31.76,0,0,1,5.2,7.27c1.67,3.46,3,7,1,10.85a1.06,1.06,0,0,0,.5,1.54,1.87,1.87,0,0,0,1.52-.35,3.07,3.07,0,0,0,.77-1.36,11,11,0,0,0,.4-6.26,3.06,3.06,0,0,1,.07-.73,2.63,2.63,0,0,1,.7.24c2.2,1.47,4.41,2.95,6.59,4.44a51.57,51.57,0,0,1,7.94,7c.76.8,1.42.84,2.06.2.46-.46.36-1.21-.29-1.91-.38-.42-.81-.8-1.2-1.21a3,3,0,0,1-.26-.47,2.77,2.77,0,0,1,.61-.1c.86.13,1.71.3,2.57.45,1.08.19,1.72-.14,1.86-1s-.3-1.37-1.45-1.47a25,25,0,0,1-9.22-3,67.51,67.51,0,0,1-10.47-7,10.72,10.72,0,0,1-2-2c-.87-1.15-1.6-2.39-2.37-3.6a5.34,5.34,0,0,1-.35-.77,4,4,0,0,1,.85,0c2.1.49,4.18,1.09,6.29,1.5,3.87.73,7.77,1.28,11.63,2.06a41.31,41.31,0,0,1,10.73,3.63c.37.19.77.49,1.13.45a1.76,1.76,0,0,0,1.28-.61c.17-.34-.11-.95-.29-1.4-.08-.19-.41-.31-.65-.41l-6.28-2.65c-.26-.11-.5-.28-.76-.41.27-.18.53-.38.8-.53.7-.39,1.42-.72,2.09-1.15a1.3,1.3,0,0,0,.48-1.86,1.16,1.16,0,0,0-1.72-.19c-2.5,1.69-5.34,1.91-8.19,1.74-3.21-.2-6.4-.64-9.6-1a3.85,3.85,0,0,1-.79-.26,4.1,4.1,0,0,1,.74-.54,59.68,59.68,0,0,0,5.85-2.38A40.43,40.43,0,0,0,186,39.63a18.08,18.08,0,0,1,2.59-1.82,26.67,26.67,0,0,1,4.83-1.91c4.75-.91.55-2.79-.4-2.4a37.36,37.36,0,0,0-5,1.84c-2.21,1.27-4.22,2.88-6.33,4.32a17.12,17.12,0,0,1-2.77,1.74A48,48,0,0,1,174.2,43a13,13,0,0,1-10.72-1.31A16.53,16.53,0,0,1,161,39.88c-.79-.69-1.43-1.56-2.23-2.24"/>
      <path class="cls-420" d="M147.39,42h-.89a7.21,7.21,0,0,1-3.29-.61l-.65-.29c-.57-.25-1.13-.5-1.69-.8l-.42-.22a11.36,11.36,0,0,1-2.09-1.26,7.16,7.16,0,0,1-.76-.7,4.53,4.53,0,0,1-1-.54,4.27,4.27,0,0,1-.89-.83l-.28-.21a7.34,7.34,0,0,1-1-1l-.16-.18-.1-.06A6.5,6.5,0,0,1,132.67,34a5.33,5.33,0,0,1-.54-.91l0,0a6.66,6.66,0,0,1-1.55-1.84l-.26-.47a25.27,25.27,0,0,1-2-4.34l-.5-1.49q-.51-1.52-1-3c-.23-.72-.42-1.44-.6-2.16-.14-.54-.28-1.08-.45-1.63a15.14,15.14,0,0,1-.35-1.48c0-.24-.1-.49-.17-.73a6.06,6.06,0,0,1-.17-1.07,4.8,4.8,0,0,1-.19-.71l-.15-.8c-.16-.87-.32-1.74-.51-2.6-.12-.54-.24-1.06-.37-1.58-.19-.83-.39-1.66-.56-2.5l-.08-.43c-.2-.94-1.1-4.39-.54-4.83a4.06,4.06,0,0,1,2-.17,22.81,22.81,0,0,0,3.95-.09c1.31,0,1.22.86,1.22.86a18.19,18.19,0,0,0,.41,2.77l.09.47c.16.76.33,1.5.51,2.25.13.56.27,1.12.39,1.69.21,1,.39,1.9.56,2.85l.1.51a5.35,5.35,0,0,1,.26.9,6,6,0,0,1,.09.84c.07.3.14.61.2.92s.11.55.19.82c.2.64.36,1.29.53,1.93s.31,1.19.49,1.79c.31,1,.64,1.94,1,2.91l.5,1.52a19.26,19.26,0,0,0,1.5,3.14l.14.26.08.07a7.7,7.7,0,0,1,1.19,1.25,4.44,4.44,0,0,1,.44.74l.39.3a7.65,7.65,0,0,1,1,.95l.09.1a5.14,5.14,0,0,1,.71.54l.19.18a4.22,4.22,0,0,1,.86.48,7.2,7.2,0,0,1,1.06,1l.15.14a6.65,6.65,0,0,0,.83.45l.55.29c.4.21.82.39,1.23.57l.61.28h1c.24,0,.58,0,.69,0a16.16,16.16,0,0,0,3.47-2c.37-.28.73-.59,1.09-.89l.61-.51.23-.21a6.09,6.09,0,0,1,.56-.91,15,15,0,0,0,1.76-3.21,11.06,11.06,0,0,1,.64-1.29,4.92,4.92,0,0,0,.29-.56c.18-.48.4-1,.62-1.43l.3-.66.33-.73a19,19,0,0,0,1-2.64c.22-.86.45-1.7.69-2.56a2.63,2.63,0,0,0,0-.31,9,9,0,0,1,.19-1.59,4,4,0,0,0,0-.47,9.42,9.42,0,0,1,.1-2c.05-.32.1-.65.14-1s.12-.82.19-1.24a6.92,6.92,0,0,0,0-1.06,11.36,11.36,0,0,1,.22-2.95c0-.09,0-.29,0-.5s0-.68,0-1c0-.93.18-1.56.18-2.69,0-.75,1.3-.62,1.3-.62s.79,0,1.72,0c.76,0,1.28,0,1.28,0h1.43s1.52-.19,1.52.28c0,.65-.18,2.41-.2,3.18,0,.15,0,.32,0,.49a8.62,8.62,0,0,1-.15,2.55,5.8,5.8,0,0,0,0,1.08,12.31,12.31,0,0,1-.12,2.49q-.09.5-.15,1c-.06.4-.12.8-.19,1.2,0,.16,0,.33,0,.5a8.6,8.6,0,0,1-.15,2.27,2.06,2.06,0,0,0,0,.36,9.06,9.06,0,0,1-.27,1.94c-.23.8-.44,1.58-.65,2.37a23,23,0,0,1-1.43,3.82L164,26c-.12.26-.24.53-.37.8s-.31.67-.44,1a11.81,11.81,0,0,1-.71,1.46,3.45,3.45,0,0,0-.28.54,21.92,21.92,0,0,1-2.57,4.67,6.59,6.59,0,0,1-.77,1.21A10.36,10.36,0,0,1,157.55,37l-.53.45c-.47.39-.94.79-1.41,1.14a21.93,21.93,0,0,1-5.26,3A7.61,7.61,0,0,1,147.39,42Zm12.15-7.45ZM136.9,27.73h0Z"/>
      <path class="cls-420" d="M166.59,42.25a9.68,9.68,0,0,1-2.06-.19l-.63-.13a17.8,17.8,0,0,1-4.72-1.45,18.17,18.17,0,0,1-3.85-2.82l-1.1-.95a13.17,13.17,0,0,1-2.73-3.24c-.25-.38-.49-.76-.77-1.11a9.54,9.54,0,0,1-1.33-2.48l-.18-.44c-.08-.18-.18-.36-.28-.54s-.34-.65-.49-1a34.63,34.63,0,0,1-1.37-3.82l-.31-1c0-.09-.16-.34-.25-.53a9.16,9.16,0,0,1-.71-1.66l-.25-.76c-.11-.3-.21-.61-.31-.92l-.26-.82a32.94,32.94,0,0,1-.94-3.34c-.29-1.29-.5-2.56-.73-3.95,0-.27-.11-.54-.17-.8s-.14-.62-.2-.91-.12-.72-.17-1.08-.07-.51-.12-.75a41.54,41.54,0,0,1-.37-5c0-.78,1.88-.78,1.88-.78a19.7,19.7,0,0,0,2.23.4c.9,0,3.12-.49,3.13.38s.16,3.28.22,3.58.14.78.19,1.17.07.48.12.72.09.42.14.64c.1.43.2.87.27,1.3.22,1.33.41,2.45.65,3.57.18.84.47,1.73.77,2.67l.28.87c.07.25.16.5.24.75s.22.63.31,1c0,.09.16.34.26.53a11.62,11.62,0,0,1,.68,1.57l.33,1a28.26,28.26,0,0,0,1.07,3c.09.18.18.36.28.54.18.34.36.68.51,1s.19.44.28.66a6.56,6.56,0,0,0,.31.7c.42.54.79,1.1,1.11,1.59a7.2,7.2,0,0,0,1.23,1.59c.45.37.9.76,1.35,1.16A12.09,12.09,0,0,0,162.44,34a11.6,11.6,0,0,0,2.89.82L166,35a3.85,3.85,0,0,0,.81,0l.22,0a5.94,5.94,0,0,1,1.58-.16l.52-.24.63-.3a6.33,6.33,0,0,0,1.25-.77c.31-.24.62-.45.93-.65a4.43,4.43,0,0,0,.64-.47A12.56,12.56,0,0,0,173.84,31c0-.06.13-.32.21-.52a10.63,10.63,0,0,1,.63-1.42,2.29,2.29,0,0,0,.24-.51,7.79,7.79,0,0,1,.71-1.47l.14-.25a10,10,0,0,0,.51-1.55,16.85,16.85,0,0,1,.68-2.1,12.59,12.59,0,0,0,.44-1.23c.12-.42.25-.84.38-1.26s.24-.78.34-1.18.26-.94.41-1.39a9.32,9.32,0,0,0,.27-.9l.18-.8c.13-.53.25-1.07.35-1.61l.09-.55c.1-.59.2-1.25.39-2a6.37,6.37,0,0,0,.23-1.4,11.89,11.89,0,0,1,.28-2c.06-.3.11-.58.13-.76,0-.36,0-.8,0-1.27,0-.32,0-.65,0-1V4.16a4.48,4.48,0,0,0-.07-.64A12.87,12.87,0,0,1,180.45,2c0-.93,1.18-.57,2.32-.53.82,0,1.29.23,2.09.29l1.91.15c.93,0,.74.39.77.64a11.41,11.41,0,0,1,.13,1.62v1.7c0,.25,0,.51,0,.76,0,.6,0,1.28,0,2a12.55,12.55,0,0,1-.26,1.7,7.34,7.34,0,0,0-.13.78,14,14,0,0,1-.47,3,10.53,10.53,0,0,0-.24,1.24l-.11.65c-.12.67-.27,1.34-.43,2l-.17.73c-.12.54-.28,1.05-.45,1.57-.09.27-.18.54-.25.83-.13.56-.3,1.1-.47,1.64-.1.32-.2.64-.29,1a16,16,0,0,1-.73,2.08c-.15.37-.27.83-.41,1.31a14.67,14.67,0,0,1-1,2.81c-.13.26-.26.5-.4.73l-.13.23a9.58,9.58,0,0,1-.72,1.59,4.93,4.93,0,0,0-.22.53,9.09,9.09,0,0,1-1.07,2.11,18.44,18.44,0,0,1-2,2.3A10.14,10.14,0,0,1,176,38.86c-.17.12-.35.23-.52.36a13.36,13.36,0,0,1-2.72,1.65l-.41.2a10.07,10.07,0,0,1-2.33.86,7.28,7.28,0,0,1-1.4.11,5.9,5.9,0,0,1-1.37.2Z"/>
    </g>
  </g>
</svg>