<svg xmlns="http://www.w3.org/2000/svg" viewBox="0 0 716.92 841.71"><defs><style>.cls-1{fill:#fbb800;}.cls-1,.cls-2,.cls-3,.cls-4{stroke:#000;stroke-width:7px;fill-rule:evenodd;}.cls-2{fill:#f4df00;}.cls-3{fill:#edf700;}.cls-4{fill:#e9cb00;}</style></defs><g id="Layer_2" data-name="Layer 2"><g id="svg2"><g id="layer1"><g id="g3366"><path id="path3266" class="cls-1" d="M429.61,703.37a26.49,26.49,0,0,1-.11-5.37,6,6,0,0,1,2-4.26c1.79-1.34,2.12-4,3-7.16a24.2,24.2,0,0,1,2-5,20.24,20.24,0,0,1,4.25-5.37,71.7,71.7,0,0,1,6.27-5.48c2.25-1.6,4.65-2.63,7.16-2.35s4.81-.45,7.5-1.46a81.25,81.25,0,0,1,8.95-3.13c4.71-1.18,9.18-3.64,12.87-5.48a17.54,17.54,0,0,0,4.81-3.14c1.15-1.09,2.29-2.47,4.7-4.7-4.83-8.29-.76-3.13-3.69-7.27-2.32-3.29-2.61-5.18-6.38-8.95-1.82-1.82-2.36-4.32-2.8-7.17a43.65,43.65,0,0,0-1.9-9.28,39.31,39.31,0,0,1-2-11.31c-.17-4.1.27-8.05,1.34-10.18a165.85,165.85,0,0,1,16.78.33,69.31,69.31,0,0,0,16.9-.89,53.51,53.51,0,0,0-6-13c-2.5-4.08-5.37-8-8.17-11.87A116.68,116.68,0,0,1,489.37,559a43.57,43.57,0,0,1-4.93-13.09,9.52,9.52,0,0,0-3.46-6.27,10.86,10.86,0,0,0-6.61-1.79,67.56,67.56,0,0,1-17.12-2c-3.23-.81-5.73-2.92-8.06-5.26s-4.48-4.9-7.05-6.83a24.63,24.63,0,0,0-8.39-3.8,38.61,38.61,0,0,0-9.74-1.24H406.89c-6.06,0-6.15,2.35-12.53,2.35-2.7,0-5.42,1.49-7.73,3.47a38.81,38.81,0,0,0-5.48,6.16c-2.85,3.81-6.33,6.33-9.06,9.06a7.25,7.25,0,0,1-3.58,1.68,25.15,25.15,0,0,1-5,.56c-3.6.07-7.51-.33-10.3-.33-5.14,0-10-1.85-13.76-2.8a4.23,4.23,0,0,1-2.46-1.57,15.46,15.46,0,0,1-1.23-2,3.76,3.76,0,0,0-1.8-1.68,10.42,10.42,0,0,0-4.58-.78,8.83,8.83,0,0,1-6.27-3.25,26.21,26.21,0,0,1-3.92-5.82,3.82,3.82,0,0,0-2.35-1.9,13.43,13.43,0,0,0-3.8-.45c-2.81,0-6,.34-7.95.34-5.78,0-9.94.43-13.09,2a15.41,15.41,0,0,1-6.72,1.12c-2.48,0-5.13-.11-7.38-.11a5.1,5.1,0,0,0-3.25,1,7.47,7.47,0,0,0-2,2.47c-1,1.88-1.56,4-2.8,5.26-2.8,2.8-7.31,5-9.06,7.38a15.91,15.91,0,0,1-4.37,4,60.6,60.6,0,0,1-5.71,3c-3.84,1.92-7.56,6.3-11.08,8.06-1.58.79-4.46.76-7.38.56s-5.9-.56-7.72-.56c-5.27,0-6.32-1.16-11.08-2.35-3-.76-5.66-.85-7.84,0s-3.9,2.63-5.26,5.37-1.87,4.46-2.91,5.6-2.6,1.75-6.15,2.46a65.9,65.9,0,0,0-7.05,2,23.72,23.72,0,0,1-7.5,1.35,8.89,8.89,0,0,0-5.37,2.12,17.73,17.73,0,0,0-4.25,5,22.29,22.29,0,0,0-2.58,6.49,12.35,12.35,0,0,0,.11,6c5.07,16.33,7.52,25.68,9.07,34.36s2.18,16.7,3.47,30.22a1.61,1.61,0,0,0,0,.22c9.8,3.27,27.5,5.78,26.07-1.12-1.65-8,.38-11.48-6.15-25.51,6.42-3.74,17.85-3.54,31.56-7.06-.65,7.16,1.15,10,.67,17.24,11.64,1,9.57,1,25.18.78,4.51,0,13.51-14.58,20.14-22.27,8.38,4.34,4.64,4.9,11.19,8.17-5.26,6.68-6.38,5.48-12.87,13.43,3.86,4.94,12.95,4.88,28.88,3.81,8.52-8.24,20.28-24.16,28.42-15.11,10,11.1-4.7,15.67,6,36.26,3.81,7.28,10.16,7.48,18.81,8.39.88,4.41-.82,10.07,4.58,10.07,11.82,0,18.63,4.7,27.65,4.7,6.87,0,12.19-3.12,21.48-9,4.25-.21,4.64.58,8.06,5.15,6.33,8.43,3.77,8.51,6.72,16.9C424.7,700.92,427.22,702.13,429.61,703.37Z"/><path id="path3269" class="cls-2" d="M506,548.15c-1.93-.36-4-.47-5.26-1.68-2-2-6-4.18-8.61-6.83a43.69,43.69,0,0,0-3.47-3.47,7.29,7.29,0,0,0-4.7-1.68c-2.93,0-4.08.07-4.48.79s-.13,2.06-.22,3.91c.5.23,1.24.13,1.68.45a9.52,9.52,0,0,1,3.46,6.27A43.57,43.57,0,0,0,489.37,559a116.68,116.68,0,0,0,7.72,11.86c2.8,3.89,5.67,7.79,8.17,11.87a53.51,53.51,0,0,1,6,13,69.31,69.31,0,0,1-16.9.89,165.85,165.85,0,0,0-16.78-.33c-1.07,2.13-1.51,6.08-1.34,10.18a39.31,39.31,0,0,0,2,11.31,43.65,43.65,0,0,1,1.9,9.28c.44,2.85,1,5.35,2.8,7.17,3.77,3.77,4.06,5.66,6.38,8.95,2.93,4.14-1.14-1,3.69,7.27-2.41,2.23-3.55,3.61-4.7,4.7a17.54,17.54,0,0,1-4.81,3.14c-3.69,1.84-8.16,4.3-12.87,5.48a81.25,81.25,0,0,0-8.95,3.13c-2.69,1-5.08,1.73-7.5,1.46s-4.91.75-7.16,2.35a71.7,71.7,0,0,0-6.27,5.48,20.24,20.24,0,0,0-4.25,5.37,24.2,24.2,0,0,0-2,5c-.9,3.19-1.23,5.82-3,7.16a6,6,0,0,0-2,4.26,26.49,26.49,0,0,0,.11,5.37c11.05,5.71,32.6,12.16,44.32,16.78-2.23,6.7-4,10.54-5.6,16.79-1.91,7.62-3.54,15.67-10.74,30.33-3,6.12-9,30.93-12.87,33.46-6.28,4.14-10,12.16.44,22.61,6.89,6.88-2.62,9.09,3.47,13.54,6.87,5,4.79-5.9,18.24-2.91,16.24,3.6,21.35,2.33,43.09,1.56-2.85-5.73-4.71-6-4.25-14.1.2-3.5,18.57-8,18.46-22.27-.13-17.31-9.28-10-13.54-15.22-1.39-1.71-1.26-7.32-1-10.29s-12.93-3.61-24.84-3.81c.28-5.82,0-4.37.67-12.08,5.39-4.38,4.07-8,16.45-7.61-2.55-13.6,36.94-24.4,36.6-42.19-12.33-.67-8.16-1.05-15.89-1.12-.3-6.23,5-27.33,24.39-47.12,2.6-9.7-.22-12.59-.22-25.29,0-17.52,3.44-20.85-8.73-34.8-12.73-14.6-14.17-17.44-13.21-31.23C521.27,564.82,511.73,554.51,506,548.15Z"/><path id="path3274" class="cls-2" d="M216.08,365.84C201.61,403.78,180.32,429,143.79,469c-4.84-1.21-9.06-.26-14.44-1.46-3,6.76-6.51,14.91-7.61,21.38,7.69,5.53,12.33,5.1,12.76,13.87.76,15.48-55.29,12.49-33.67,25.07,5.89,3.42,19-9.58,28.27.36,6.31,6.73,5.5,1.3,6.62,14.53.78,9.14,14.2,10.65,19.71,17.68,6.1,2.84,10.66,8.14,16.78,11.19,0,.14.07.3.12.45a8.43,8.43,0,0,1,4.36-1.68,23.72,23.72,0,0,0,7.5-1.35,65.9,65.9,0,0,1,7.05-2c3.55-.71,5.12-1.33,6.15-2.46s1.52-2.79,2.91-5.6,3.09-4.52,5.26-5.37,4.81-.76,7.84,0c4.76,1.19,5.81,2.35,11.08,2.35,1.82,0,4.79.36,7.72.56s5.8.23,7.38-.56c3.52-1.76,7.24-6.14,11.08-8.06a60.6,60.6,0,0,0,5.71-3,15.91,15.91,0,0,0,4.37-4c1.75-2.34,6.26-4.58,9.06-7.38,1.24-1.25,1.78-3.38,2.8-5.26a7.47,7.47,0,0,1,2-2.47,5.1,5.1,0,0,1,3.25-1c2.25,0,4.9.12,7.38.11a15.41,15.41,0,0,0,6.72-1.12c3.15-1.58,7.31-2,13.09-2,2,0,5.14-.39,7.95-.34a13.43,13.43,0,0,1,3.8.45,3.66,3.66,0,0,1,1.57,1.23c.33-1.59-.37-2.91-1.23-4.59a13.26,13.26,0,0,1-1.9-6.6,5.18,5.18,0,0,1,1-3,8.76,8.76,0,0,1,2.35-2.13,48.68,48.68,0,0,1,5.49-2.8c6.66-3.33,6.63-3.49,11-7.83,3.64-3.64,5.62-7,8.4-12.54a10,10,0,0,0,.33-7.83,7.2,7.2,0,0,0-4.59-4.7c-3-.75-3.18-1.47-3.58-2s-1-.9-4.81-.9c-1.92,0-5.23,1.14-8.5,2.46s-6.51,2.81-8.06,3.58c-4,2-6.51,4-11.42,5.26a8.84,8.84,0,0,1-4.25.12,7.69,7.69,0,0,1-3-1.68c-1.81-1.5-3.31-3.65-5.15-5.49-2-2-3.21-2.91-4.14-3.91a9.53,9.53,0,0,1-2.24-4.7,13.87,13.87,0,0,1-.22-6.72,25.65,25.65,0,0,1,2.35-5.71,8.09,8.09,0,0,0,.78-4.47,10.12,10.12,0,0,0-1.23-3.92,12.7,12.7,0,0,0-4.48-4.81c-1.27-.64-1.21-3.57-.78-6.49a31.86,31.86,0,0,1,1.57-6.38,7,7,0,0,1,4.25-3.69c1.55-.63,3.14-1.13,4.25-3.36a14,14,0,0,0-2.57-6.27,29.28,29.28,0,0,0-5.6-5.93,34.94,34.94,0,0,0-7.27-4.59,23.52,23.52,0,0,0-7.72-2.12c-1-.12-1.5-1-1.79-2.24a16.34,16.34,0,0,1-.23-4.59c.26-3.37,1-7,1-7.83a34.08,34.08,0,0,0-10.07,6.26c-3.07,2.54-6,5.29-9.18,7.61a13.63,13.63,0,0,1-4.81,1.46,11.08,11.08,0,0,1-9.74-4.37c-.72-6-.83-9.16.12-12.2s2.95-6,6.49-11.75c-4.44-2.21-18.65-3.67-22.72-5.7C216.34,365.92,216.17,365.89,216.08,365.84Z"/><path id="path3280" class="cls-3" d="M343.66,478.54c1-.4,1.4-.69,2.57-1.12.31,0,.65.18.9,0,1.79-1.35,4.6-1.48,6.49-2.24a19.91,19.91,0,0,1,3.92-1.12c1.57-.24,3.1-.25,3.91.56,1.05,1.05,2.91,3.81,4.71,3.81h8.28c3,0,7.61.72,10.18-.56,2.25-1.13,4.95-2.64,7.95-4.14a38.93,38.93,0,0,1,4.58-2.13c2.05-.75,4.18-1.2,5.15-.22,1.85,1.84,3,3.25,5.49,4.25s7.27.13,9.28,1.34c.84.51,2.15,2.43,3.47,4.14s2.66,3.21,3.47,2.8c2.64-1.32,6-3.7,7.39-6.49a10.78,10.78,0,0,0,1-6.49c-.65-3.15-1.17-3.62-1.91-4s-1.73-.75-3.24-3.36c-1.74-3-1.86-13-3.25-15.78-.21-.42-1.72-3.21-3.35-5.93s-3.39-5.31-4-5.15c-1.44.36-4.56,3.22-6.94,3.7-1.53.3-3.43,2.12-5,3.47a8.25,8.25,0,0,1-2.12,1.45c-.58.2-1,0-1.23-.78-.6-2.4,0-4.92,0-7.39,0-3,1.57-4.93,2.79-7.38a13.27,13.27,0,0,0,1.46-6.94c0-1.14.13-2.81,0-4.14s-.57-2.35-1.9-2.35c-2.09,0-6.47-.53-7.84-1.91a3.1,3.1,0,0,1-1.12-2.23,17.82,17.82,0,0,0-.33-3.25c-1-4.77-.51-9.62-.9-14.44-.14-1.78-.87-2.29-1.79-2.57s-2-.3-2.8-1.12c-1.87-1.88-5.66-2.3-7.94-4.59-1.11-1.1-5.75-6.94-7.39-6.94-1.13,0-2.42-.16-3.58-.11a4.21,4.21,0,0,0-2.91,1c-.82.82-2.28,1.82-3.58,2.91s-2.46,2.26-2.46,3.58a4.91,4.91,0,0,1-1.46,3.69c-.89.93-2.06,1.73-3.13,2.8-2.34,2.34-3.83,4.35-4.59,7.39a14.66,14.66,0,0,1-2.8,5.59c-1,1-7.22,2.35-9.29,2.35-.75-7.19-.93-2.24-1.45-7.94-2.31-.58-6.14-.28-8.28-1.35a10,10,0,0,1-2.69-2.12,4.86,4.86,0,0,1-1.45-3,16.87,16.87,0,0,1,1.79-8.29,4.51,4.51,0,0,0,.56-3,4,4,0,0,0-2.35-2.57,13.57,13.57,0,0,1-3.25-2.57,4.49,4.49,0,0,0-3.24-1.57,29.06,29.06,0,0,0-6.94.45c-1.84.46-3.93.16-5.15,1.79A8.11,8.11,0,0,1,303.6,381a30.83,30.83,0,0,0-4.59,2c-3.41,2-3.44,3.44-5.6,5.59a31,31,0,0,1-7.83,5.93c-3.47,1.74-7.9,4.14-10.18,5.15-.53.48-1,1-1.57,1.46.41.16.82.14,1.23.33a34.94,34.94,0,0,1,7.27,4.59,29.28,29.28,0,0,1,5.6,5.93,14,14,0,0,1,2.57,6.27c-1.11,2.23-2.7,2.73-4.25,3.36a7,7,0,0,0-4.25,3.69,31.86,31.86,0,0,0-1.57,6.38c-.43,2.92-.49,5.85.78,6.49a12.7,12.7,0,0,1,4.48,4.81,10.12,10.12,0,0,1,1.23,3.92,8.09,8.09,0,0,1-.78,4.47,25.65,25.65,0,0,0-2.35,5.71,13.87,13.87,0,0,0,.22,6.72,9.53,9.53,0,0,0,2.24,4.7c.93,1,2.12,1.89,4.14,3.91,1.84,1.84,3.34,4,5.15,5.49a7.69,7.69,0,0,0,3,1.68,8.84,8.84,0,0,0,4.25-.12c4.91-1.22,7.43-3.26,11.42-5.26,1.55-.77,4.79-2.25,8.06-3.58s6.58-2.46,8.5-2.46c3.81,0,4.41.35,4.81.9s.57,1.26,3.58,2a7.2,7.2,0,0,1,4.59,4.7C344.08,476.58,343.58,477.6,343.66,478.54Z"/><path id="path3292" class="cls-2" d="M435.65,210.85a5.89,5.89,0,0,0-1.23.33,7.54,7.54,0,0,0-2,1.35,4.68,4.68,0,0,1,.11,1.79c-1.12,5.41-8.48,15-13.32,19-7.42,6.18-4.2,17.13-2.35,28.2.6,3.6,8.15,17.15,19.7,20,2.92.73,20.5-5.65,27-1.12.4-.12.45-.09.89-.23a86.57,86.57,0,0,1,12.87-4.36c4.34-1.11,9.45-2.15,17.35-4.14a25,25,0,0,1-5.6-8.28,82.29,82.29,0,0,1-3.35-10.52c-2.88-2.91-9.29-8.53-15.34-14.66a110.75,110.75,0,0,1-8.28-9.29,27.28,27.28,0,0,1-4.81-8.28c.06-.3.06-.6.11-.9-1.07-.29-2.18-.33-3.24-.67a28,28,0,0,0-8.51-1.79,7,7,0,0,1-3.8-1.46,18.65,18.65,0,0,1-2.58-2.23,3.14,3.14,0,0,1-.44-.9,3,3,0,0,0-3.14-1.9Zm-9.51,69.61c-19.54,11-10.18,6.52-31.78,21-9.08,9.07-9.49,15.91-17.35,26.29-18.26,8.43-28.44,10.29-41.29,17.91-.57,7.06-.49,13.63-2.91,14.44.21.41.45.81.67,1.23,4.81,1.05,9.75,2.33,14.66,3.8a111.65,111.65,0,0,1,14.55,5.37,75.83,75.83,0,0,1,13.54,7.95,61.84,61.84,0,0,1,11.64,11.42c1.9,0,8.86-5.27,11.52-5.15,4,.17,5.61-.29,6.61-1.23s1.34-2.3,2.35-3.81c4.84-7.23,2.23-5.37,2.91-6,1.86-1.86,2.86-2.77,3.35-3.92s.45-2.44.45-4.92a9.27,9.27,0,0,1,1.9-4.37,11.19,11.19,0,0,1,3.25-3.35c5.28-2.65,7.54-4.21,13.2-5.94a6.69,6.69,0,0,0,3.92-2.46,3.66,3.66,0,0,1,2.46-1.79,48.43,48.43,0,0,0,6.16-1.57,13.12,13.12,0,0,0,4.92-2.68c3.37-3.37,3.9-2.54,8.06-5.15a7.11,7.11,0,0,0,2.91-2.68,14,14,0,0,0,.89-3.59,9.29,9.29,0,0,1,2.69-4.36c1.22-1.27,2.46-2.46,2.8-3.81.75-5,2-9.89,2.57-14.88-4.17-7.79-7.14-9.26-9.62-14.21a18.68,18.68,0,0,1-.67-3.25c-8.09,1-24.52-5.39-34.14-10.18Z"/><path id="path3303" class="cls-4" d="M388.87,390a7.73,7.73,0,0,0,2.8,1.92c.92.28,1.65.79,1.79,2.57.39,4.82-.09,9.67.9,14.44a17.82,17.82,0,0,1,.33,3.25,3.1,3.1,0,0,0,1.12,2.23c1.37,1.38,5.75,1.91,7.84,1.91,1.33,0,1.77,1,1.9,2.35s0,3,0,4.14a13.27,13.27,0,0,1-1.46,6.94c-1.22,2.45-2.79,4.39-2.79,7.38,0,2.47-.6,5,0,7.39.18.75.65,1,1.23.78a8.25,8.25,0,0,0,2.12-1.45c1.61-1.35,3.51-3.17,5-3.47,2.38-.48,5.5-3.34,6.94-3.7.64-.16,2.39,2.44,4,5.15s3.14,5.51,3.35,5.93c1.39,2.77,1.51,12.78,3.25,15.78,1.51,2.61,2.51,2.95,3.24,3.36s1.26.88,1.91,4a10.78,10.78,0,0,1-1,6.49c-1.4,2.79-4.75,5.17-7.39,6.49-.81.41-2.14-1.08-3.47-2.8s-2.63-3.63-3.47-4.14c-2-1.21-6.83-.36-9.28-1.34s-3.64-2.41-5.49-4.25c-1-1-3.1-.53-5.15.22a38.93,38.93,0,0,0-4.58,2.13c-3,1.5-5.7,3-7.95,4.14-2.57,1.28-7.14.56-10.18.56h-8.28c-1.8,0-3.66-2.76-4.71-3.81-.81-.81-2.34-.8-3.91-.56a19.91,19.91,0,0,0-3.92,1.12c-1.89.76-4.7.89-6.49,2.24-.25.18-.59,0-.9,0-1.17.43-1.54.72-2.57,1.12.15,1.7.6,3.39-.22,5-2.78,5.55-4.76,8.9-8.4,12.54-4.33,4.34-4.3,4.5-11,7.83a48.68,48.68,0,0,0-5.49,2.8,8.76,8.76,0,0,0-2.35,2.13,5.18,5.18,0,0,0-1,3,13.26,13.26,0,0,0,1.9,6.6c.86,1.68,1.56,3,1.23,4.59,0,0,0,.09,0,.11.21.23.64.28.78.56a26.21,26.21,0,0,0,3.92,5.82,8.83,8.83,0,0,0,6.27,3.25,10.42,10.42,0,0,1,4.58.78,3.76,3.76,0,0,1,1.8,1.68,15.46,15.46,0,0,0,1.23,2,4.23,4.23,0,0,0,2.46,1.57c3.79.95,8.62,2.8,13.76,2.8,2.79,0,6.7.4,10.3.33a25.15,25.15,0,0,0,5-.56,7.25,7.25,0,0,0,3.58-1.68c2.73-2.73,6.21-5.25,9.06-9.06a38.81,38.81,0,0,1,5.48-6.16c2.31-2,5-3.47,7.73-3.47,6.38,0,6.47-2.35,12.53-2.35H424a38.61,38.61,0,0,1,9.74,1.24,24.63,24.63,0,0,1,8.39,3.8c2.57,1.93,4.72,4.49,7.05,6.83s4.83,4.45,8.06,5.26a67.56,67.56,0,0,0,17.12,2,11.27,11.27,0,0,1,4.93,1.34c.09-1.85-.14-3.26.22-3.91s1.55-.79,4.48-.79a7.29,7.29,0,0,1,4.7,1.68,43.69,43.69,0,0,1,3.47,3.47c2.65,2.65,6.58,4.8,8.61,6.83,1.22,1.21,3.33,1.32,5.26,1.68-1.72-1.94-5.64-5.88-5.7-6.16-2-8,5.1-8.15-4.59-21.15,12.9-7.71,19.94-10.87,37.6-10.85-7.37-10.84-9.07-14.19-6.16-14.89,3.13-.75,15.62,4.3,22.39,8.62,5,3.19,14.87,7.32,23.83,12.2,3-5.41,4-9,7.17-10.19,3.71-1.35,12.47,3.28,27.75-4.36,1.79-.89,13-14.43,30.1-10.63,11.92-11.56,7.89-7.18,18.47-18.8-1.8-3.6-12.43-13.87-28.76-29.44a100.21,100.21,0,0,1,23.5-16.34c-1.61-.09-2.61-.37-4.25-.44-7.2-.34-14.42-.54-18.47-1.35a8.64,8.64,0,0,1-4.14-2.57,9.78,9.78,0,0,1-2.57-4.25,5.74,5.74,0,0,0-1.57-2.8,13.89,13.89,0,0,0-2.69-1.9,20.36,20.36,0,0,0-8.05-2.58,85.07,85.07,0,0,0-9-.44c-9.25-.2-11.58-.59-12.42-1.68a11.49,11.49,0,0,1-.89-2.13,8.58,8.58,0,0,0-2.91-3.36c-2.64-2-3.38-3.34-3.81-4.81a23.26,23.26,0,0,0-1.68-5.37,4.39,4.39,0,0,0-2-1.9,11.7,11.7,0,0,0-5.6-1.12c-1.86,0-4-.44-5.7-.23a4.15,4.15,0,0,0-2.24,1,4.55,4.55,0,0,0-1.46,2.58,3.32,3.32,0,0,1-2.35,2.12,16.23,16.23,0,0,1-4.7.78,26.15,26.15,0,0,1-9.51-1.11c-2-.8-3.87-.2-5.71.22a8.11,8.11,0,0,1-2.8.22,4.25,4.25,0,0,1-2.57-1.34c-1.83-1.83-2.89-2-4.7-3.8-1.19-1.2-3.37-4-5.71-6.72s-4.81-5.28-6.6-6A9.93,9.93,0,0,1,514.1,375a7.55,7.55,0,0,1-1.68-3.47c-.24-1-1-2.57-1.68-4.25a8.37,8.37,0,0,1-.78-4.59,12.7,12.7,0,0,1,2.91-6c2.22-2.22,7.46-6.76,8.51-8.84a1.91,1.91,0,0,0-.34-2,14.21,14.21,0,0,0-2.13-2.12c-1.64-1.44-3.47-2.87-3.47-4.37s1.09-2.06,2-2.57,1.75-1,1-2.13c-2-3.06-4.36-5.91-6.38-8.95a13.83,13.83,0,0,1-1.35-4.7c-.31-1.73-.69-3.32-1.68-3.81a20.56,20.56,0,0,0-9.4-2.57c-1.45,0-7,2-7.61,3.47a10.45,10.45,0,0,1-.56,2.46,8.06,8.06,0,0,1-3.69,3.92c-4.3-4.68-8.41-7.38-12.2-11a37.72,37.72,0,0,1-5.48-6.49,46.44,46.44,0,0,1-4.81-9.74V290c-.18-.12-.38-.22-.56-.34-.77.92-2.64.92-4.25,1.12a18.68,18.68,0,0,0,.67,3.25c2.48,4.95,5.45,6.42,9.62,14.21-.58,5-1.82,9.87-2.57,14.88-.34,1.35-1.58,2.54-2.8,3.81a9.29,9.29,0,0,0-2.69,4.36,14,14,0,0,1-.89,3.59,7.11,7.11,0,0,1-2.91,2.68c-4.16,2.61-4.69,1.78-8.06,5.15a13.12,13.12,0,0,1-4.92,2.68,48.43,48.43,0,0,1-6.16,1.57,3.66,3.66,0,0,0-2.46,1.79,6.69,6.69,0,0,1-3.92,2.46c-5.66,1.73-7.92,3.29-13.2,5.94a11.19,11.19,0,0,0-3.25,3.35,9.27,9.27,0,0,0-1.9,4.37c0,2.48,0,3.77-.45,4.92s-1.49,2.06-3.35,3.92c-.68.67,1.93-1.19-2.91,6-1,1.51-1.36,2.86-2.35,3.81s-2.65,1.4-6.61,1.23C391.55,391.45,390.56,388,388.87,390Z"/><path id="path3289" class="cls-3" d="M464.75,289.63c.18.12.38.22.56.34v7.27a46.44,46.44,0,0,0,4.81,9.74,37.72,37.72,0,0,0,5.48,6.49c3.79,3.59,7.9,6.29,12.2,11a8.06,8.06,0,0,0,3.69-3.92,10.45,10.45,0,0,0,.56-2.46c.6-1.48,6.16-3.47,7.61-3.47a20.56,20.56,0,0,1,9.4,2.57c1,.49,1.37,2.08,1.68,3.81a13.83,13.83,0,0,0,1.35,4.7c2,3,4.41,5.89,6.38,8.95.74,1.17-.08,1.62-1,2.13s-2,1.1-2,2.57,1.83,2.93,3.47,4.37a14.21,14.21,0,0,1,2.13,2.12,1.91,1.91,0,0,1,.34,2c-1,2.08-6.29,6.62-8.51,8.84a12.7,12.7,0,0,0-2.91,6,8.37,8.37,0,0,0,.78,4.59c.66,1.68,1.44,3.28,1.68,4.25A7.55,7.55,0,0,0,514.1,375a9.93,9.93,0,0,0,3.47,2.13c1.79.76,4.27,3.34,6.6,6s4.52,5.52,5.71,6.72c1.81,1.8,2.87,2,4.7,3.8a4.25,4.25,0,0,0,2.57,1.34,8.11,8.11,0,0,0,2.8-.22c1.84-.42,3.73-1,5.71-.22a26.15,26.15,0,0,0,9.51,1.11,16.23,16.23,0,0,0,4.7-.78,3.32,3.32,0,0,0,2.35-2.12,4.55,4.55,0,0,1,1.46-2.58,4.15,4.15,0,0,1,2.24-1c1.73-.21,3.84.24,5.7.23a11.7,11.7,0,0,1,5.6,1.12,4.39,4.39,0,0,1,2,1.9,23.26,23.26,0,0,1,1.68,5.37c.43,1.47,1.17,2.84,3.81,4.81a8.58,8.58,0,0,1,2.91,3.36,11.49,11.49,0,0,0,.89,2.13c.84,1.09,3.17,1.48,12.42,1.68a85.07,85.07,0,0,1,9,.44,20.36,20.36,0,0,1,8.05,2.58,13.89,13.89,0,0,1,2.69,1.9,5.74,5.74,0,0,1,1.57,2.8,9.78,9.78,0,0,0,2.57,4.25,8.64,8.64,0,0,0,4.14,2.57c4.05.81,11.27,1,18.47,1.35,1.64.07,2.64.35,4.25.44,3.93-2,7.68-3.76,8.84-5,3.45-3.8,9.72-17.37,17.79-18.58,4.74-.71-2-12.27,18.36-15.44-7.36-6.28-6-12.33-6-16-.34-19.92,7.26-22.4,2.24-28.64-10.15-12.64-12.55-21.65-17-20.82s-7.85,9.63-12.08,6.15c-6.12-5-17.53-3.75-23.39-3.91-17.85-.5-20.19-27.23-10.3-28.54s-.45-8.44-2.13-19.92c-2.09-.73-4.16-1.37-5.7-2.91-1.76-1.75-2.52-3.13-3.81-4s-3-1.34-6.82-1.34c-2.42,0-4.25-.59-6.94-1a49,49,0,0,0-12.31,0c-2.18,4.74-2.67,4.72-2.91,5.15s-.32,1.22-1.46,7.61c-1.84,0-6.73.06-11.41-.34a41.92,41.92,0,0,1-6.49-1c-1.8-.46-3.07-1-3.47-1.79-1.64-3.27-2.52-4.31-3.92-4.93s-3.36-.84-6.83-2.57c-3.66-1.83-9.29-3.08-13.87-5.37-2.1-1.05-5-.59-7.73-.34a12.64,12.64,0,0,1-3.69,0,3.31,3.31,0,0,1-2.46-1.79c-1.29-2.59-5-6.53-6.49-9.62a15.28,15.28,0,0,1-1.79-7.5,15.46,15.46,0,0,1,1.79-6.49c1.15-2.3,8.61-6.36,10.74-9.52a30.53,30.53,0,0,0-3.35-6.71,26.19,26.19,0,0,0-3.92-4.36c-2.74-2.53-5.66-4.62-8.73-8.29-.28-.38-.61-.73-.9-1.11-3.31,2.84-7.17,6.27-10.29,7.83a18,18,0,0,1-7.72,1.34,18.39,18.39,0,0,1-7.17-1.34c-2.19-1.1.8-.65-2.68-1.34-1.35-.27-3.39.24-5.37,1a23.1,23.1,0,0,0-5,2.69l-1.79,1.34a12.5,12.5,0,0,1-6,2,59.2,59.2,0,0,1-6.61.22,21,21,0,0,1-5.37-1.12c-.05.3-.05.6-.11.9a27.28,27.28,0,0,0,4.81,8.28,110.75,110.75,0,0,0,8.28,9.29c6.05,6.13,12.46,11.75,15.34,14.66A82.29,82.29,0,0,0,489,263.45a25,25,0,0,0,5.6,8.28c-7.9,2-13,3-17.35,4.14a86.57,86.57,0,0,0-12.87,4.36c-.44.14-.49.11-.89.23,2,1.4,3.06,3.77,2.12,7.83A3.26,3.26,0,0,1,464.75,289.63Z"/><path id="path3286" class="cls-4" d="M515.44,207.16c.29.38.62.73.9,1.11,3.07,3.67,6,5.76,8.73,8.29a26.19,26.19,0,0,1,3.92,4.36,30.53,30.53,0,0,1,3.35,6.71c-2.13,3.16-9.59,7.22-10.74,9.52a15.46,15.46,0,0,0-1.79,6.49,15.28,15.28,0,0,0,1.79,7.5c1.54,3.09,5.2,7,6.49,9.62a3.31,3.31,0,0,0,2.46,1.79,12.64,12.64,0,0,0,3.69,0c2.7-.25,5.63-.71,7.73.34,4.58,2.29,10.21,3.54,13.87,5.37,3.47,1.73,5.43,1.95,6.83,2.57s2.28,1.66,3.92,4.93c.4.81,1.67,1.33,3.47,1.79a41.92,41.92,0,0,0,6.49,1c4.68.4,9.57.34,11.41.34,1.14-6.39,1.22-7.18,1.46-7.61s.73-.41,2.91-5.15a49,49,0,0,1,12.31,0c2.69.42,4.52,1,6.94,1,3.78,0,5.53.44,6.82,1.34s2.05,2.28,3.81,4c1.54,1.54,3.61,2.18,5.7,2.91a17.89,17.89,0,0,1-.56-2.35c13.83-3.34,41.37-2.11,64.47-2.8-1-23.58-1.78-37.19-1.91-42.08a83.29,83.29,0,0,1,.79-14.43c-1.66-3.92-4.25-9.54-5.15-12.2A35.25,35.25,0,0,1,683.31,189a255.41,255.41,0,0,0-15.56-21.71,206.8,206.8,0,0,0-15.1-16.9c-10.12-10.19-20.58-18.81-32.57-28.88a20.71,20.71,0,0,0-6.71,4.82,13.63,13.63,0,0,0-2,3.13c-.33.6-.54.71-1.34,0s-2.28-2.19-4.93-4.7a56,56,0,0,0-10-13.77c-4.14-4.24-9.44-8.49-16.78-14a65.38,65.38,0,0,0-9.29,7.61,58.79,58.79,0,0,0-8.06,9.73,41.94,41.94,0,0,0-5.15,11.19,29.85,29.85,0,0,0-1,12.09c-.09.14-.14.31-.23.45.76.75,1.61,1.83,2.58,2.79a4.64,4.64,0,0,1,1.34,2.8,7.46,7.46,0,0,1-.34,2.69c-.45,1.91-1,4-.11,6.26s1.27,4.34,1.9,6.16a11.14,11.14,0,0,0,3.47,5.15c4.52,3.89,6.43,4.6,7.5,4.81s1.33,0,2.46,2c-1.63,2.75-2.16,4.35-3.24,5.94s-2.76,3.18-6.72,5.81c-2.87,1.92-4.71,4.47-6.49,5.82a3.45,3.45,0,0,1-2.68.9,6.42,6.42,0,0,1-3.47-2.24c-1.71-1.81-2.35-2.35-3.14-2.46s-1.77.22-4.14.22c-1.84,0-3.9,1.44-6.26,3.36s-5,4.35-7.73,6.16c-4,2.66-9.34,8.91-12.64,11.75C516.46,206.41,515.91,206.75,515.44,207.16Z"/><path id="path3283" class="cls-3" d="M554.61,138.11c.09-.14.14-.31.23-.45a29.85,29.85,0,0,1,1-12.09A41.94,41.94,0,0,1,561,114.38a58.79,58.79,0,0,1,8.06-9.73A65.38,65.38,0,0,1,578.34,97c7.34,5.49,12.64,9.74,16.78,14a56,56,0,0,1,10,13.77c2.65,2.51,4.12,4,4.93,4.7s1,.6,1.34,0a13.63,13.63,0,0,1,2-3.13,20.71,20.71,0,0,1,6.71-4.82c12,10.07,22.45,18.69,32.57,28.88a206.8,206.8,0,0,1,15.1,16.9A255.41,255.41,0,0,1,683.31,189a35.25,35.25,0,0,0,2.24,12.53c.9,2.66,3.49,8.28,5.15,12.2,1.8-12.51,6.42-18.19,10.18-23.73,6.9-10.15,11-22.35,11-33.23,0-16.65-2.09-30.61-4.7-45.44-.75-4.22,6.4-12.93,6.26-17.57-.07-2.72-2.69-10-12.08-9.74-8.26.2-12.18-3.9-13.1-7.83-3.88-16.75-6.13-10.53-18.57-13.54-17-4.11-13.45-10-20.37-23.84C645.88,32,646.82,23,638.66,21.72a71.12,71.12,0,0,0-17.24-.56A56.45,56.45,0,0,0,606,24.63c-14.75,5.9-17.13,8.17-31.22,8.17-10.28,0-19.7.45-29.21,4.25-2.15.86-5.27.84-8.51.78a29.64,29.64,0,0,1-3.35,5.6c-1.14,2-2.91,4.32-3.92,6.16a5.08,5.08,0,0,0-.78,2.23c0,.58.22,1,1,1a15,15,0,0,1,8.06,2.69c2.4,1.72,4.67,4.43,6.94,8.61-2.72,4.87-5.12,9.28-7.28,12.76s-4.08,6.09-6.26,7.61a33.25,33.25,0,0,1,2.12,9.4c.26,2.79.27,5.33.56,8.17a5.48,5.48,0,0,1-2.12,3.81c-1.22,1.14-2.83,2.26-4.26,3.47a10.67,10.67,0,0,0-3.24,4.14,6.83,6.83,0,0,0,.56,5.82,8.14,8.14,0,0,0,4.47,4.25,21.47,21.47,0,0,0,5.71,1,20.15,20.15,0,0,1,6.6,1.45A18.7,18.7,0,0,1,549,132,56.19,56.19,0,0,0,554.61,138.11Z"/><path id="path2457" class="cls-3" d="M107.73,586.93c-5.82-5.63-22.69-5.81-35.6-5.81-15.75,0-13.32,20.55,3,20.55,12.15,0,17.82.45,30,.45C113.7,602.12,111.27,590.35,107.73,586.93Zm64.6-14.83c-.05-.15-.07-.31-.12-.45-6.12-3-10.68-8.35-16.78-11.19,5.76,5.39,4,1.79-.56.22-4.21,8.15-8.26,9.15-2.69,17.46,3.95,5.89-.05,4.34-14.77,4.25-11-.07-16,1.88-8.28,14,4.55,7.1,31.82,12.79,32.79,16.68,1.26,5,.39,6.68.56,18.91-17.81.67-17.87-5-32.23-18-7.09-6.45-12-10.9-15.11-10.74-11,.56-20.8.78-37.71.78-10.14,0-11.48,1-19.36-9.18-7-9-5.57-8.91-17-10.85-4.33,4.33-12.34,9.32-24.84,18.35,8.48,8.48,25.35,30.49,36.48,27.2,10.8-3.2,11.46-5,18.24,1.79,1.44,1.43,22.82,22.05,25.18,19.69,4.7-4.69,7.41-8.49,19.81-22.27,10.75,6.23,18.37,8.94,27.42,14.33,7,4.18,21.77,2,27.64,9,.74.88,3.24,1.93,6.16,2.91a1.61,1.61,0,0,1,0-.22c-1.29-13.52-1.92-21.54-3.47-30.22s-4-18-9.07-34.36a12.35,12.35,0,0,1-.11-6,22.29,22.29,0,0,1,2.58-6.49,17.73,17.73,0,0,1,4.25-5C171.63,572.29,172,572.31,172.33,572.1Zm-45,9.16c11.22-7.15,30.7-10,6.57-26.9-4.11-2.86-5.78-5-16.76-8.89-10.66-3.74-12.69-3.7-23-3.8-18.11-.17-34.07,5.21-29.22,16,7.36,16.37,18.77-5,25.73-.84C109.18,568,111.33,578.47,127.35,581.26Zm19.83,75.41c-10.21-6-15-15-23-14.21-7.83.79-13.88,18.59-26.76,18.63-7.29,0-13.46.4-27.75-6.75-9.87-4.93-14.35-7.83-26.27-10.81C31,640.43,9.54,647.86,5.87,655.19-1.25,669.43,8,689.36,29.33,689.36c12.71,0,12.32-13.62,23.45-15.09,5.08-.67,26.31,12.09,27.21,13.67,6.31,11,15.71,15.25,29,15,15-.22,17.74-4.78,31.31-15.14,11-8.43,9.62-8.62,14.62-13.27,7.93-7.37,15.82-14,15.82-19.79C170.73,646.3,155.05,646.93,147.18,656.67Z"/><path id="path3295" class="cls-4" d="M379.25,381.51c-1.07-.91-1.91-2.19-3-3a75.83,75.83,0,0,0-13.54-7.95,111.65,111.65,0,0,0-14.55-5.37c-4.91-1.47-9.85-2.75-14.66-3.8-.22-.42-.46-.82-.67-1.23-.18.06-.25.34-.45.33-2.07-.06-9,0-25.85-7.05,13-9.23,20.25-14,20.25-17.23,0-7.3-3.05-4.73-3.24-9.29-.29-7,5.67-3.82,5.48-15-.18-10.61-14.24-23.14-12.65-30.55,7.16-9,10.08-9.29,22.28-2.68,6.14-6.73,14.22-15.37,22.94-24.85,5.11-5.56,0-24.45-18.36-15.89-12.32,5.76-11.3-4.1-11.3-22.61,0-15.06-8.56-32.9-19.25-32.9-11.29,0-24.69,15.48-32.68,7.5-6.26-6.26-3.85-16.67-12.08-16.67-8.81,0-12.94,12.34-15,20.59-10.4,76.81-12.62,92.28-29.77,152.64-2,7.2-4.64,13-7,19.36.09.05.26.08.34.12,4.07,2,18.28,3.49,22.72,5.7-3.54,5.76-5.55,8.72-6.49,11.75s-.84,6.17-.12,12.2a11.08,11.08,0,0,0,9.74,4.37,13.63,13.63,0,0,0,4.81-1.46c3.18-2.32,6.11-5.07,9.18-7.61a34.08,34.08,0,0,1,10.07-6.26c0,.85-.75,4.46-1,7.83a16.34,16.34,0,0,0,.23,4.59c.29,1.25.76,2.12,1.79,2.24a23.66,23.66,0,0,1,6.49,1.79c.53-.48,1-1,1.57-1.46,2.28-1,6.71-3.41,10.18-5.15a31,31,0,0,0,7.83-5.93c2.16-2.15,2.19-3.55,5.6-5.59a30.83,30.83,0,0,1,4.59-2,8.11,8.11,0,0,0,3.69-2.68c1.22-1.63,3.31-1.33,5.15-1.79a29.06,29.06,0,0,1,6.94-.45,4.49,4.49,0,0,1,3.24,1.57,13.57,13.57,0,0,0,3.25,2.57,4,4,0,0,1,2.35,2.57,4.51,4.51,0,0,1-.56,3,16.87,16.87,0,0,0-1.79,8.29,4.86,4.86,0,0,0,1.45,3,10,10,0,0,0,2.69,2.12c2.14,1.07,6,.77,8.28,1.35.52,5.7.7.75,1.45,7.94,2.07,0,8.27-1.33,9.29-2.35a14.66,14.66,0,0,0,2.8-5.59c.76-3,2.25-5.05,4.59-7.39,1.07-1.07,2.24-1.87,3.13-2.8a4.91,4.91,0,0,0,1.46-3.69c0-1.32,1.16-2.5,2.46-3.58s2.76-2.09,3.58-2.91a4.21,4.21,0,0,1,2.91-1c1.16-.05,2.45.11,3.58.11C374.82,380.87,377.28,381,379.25,381.51ZM261.81,170.86c4.91,5.41,21.51-15.81,27.43-22.79,6.4-7.54,9.29-21.14,3.83-33.18-4.9-10.81-14.58-14.32-18.48-4-4.08,10.78-14.84,28.52-20.78,40.4C249.06,160.79,256,164.48,261.81,170.86Z"/><path id="path2453" class="cls-1" d="M432.41,212.53a7.54,7.54,0,0,1,2-1.35,4.21,4.21,0,0,1,2.46-.22,3.16,3.16,0,0,1,1.91,1.79,3.14,3.14,0,0,0,.44.9,18.65,18.65,0,0,0,2.58,2.23,7,7,0,0,0,3.8,1.46,28,28,0,0,1,8.51,1.79,28.64,28.64,0,0,0,8.61,1.79,59.2,59.2,0,0,0,6.61-.22,12.5,12.5,0,0,0,6-2l1.79-1.34a23.1,23.1,0,0,1,5-2.69c2-.76,4-1.27,5.37-1,3.48.69.49.24,2.68,1.34a18.39,18.39,0,0,0,7.17,1.34,18,18,0,0,0,7.72-1.34c3.56-1.78,8.21-5.92,11.75-9,3.3-2.84,8.64-9.09,12.64-11.75,2.71-1.81,5.36-4.24,7.73-6.16s4.42-3.36,6.26-3.36c2.37,0,3.36-.33,4.14-.22s1.43.65,3.14,2.46a6.42,6.42,0,0,0,3.47,2.24,3.45,3.45,0,0,0,2.68-.9c1.78-1.35,3.62-3.9,6.49-5.82,4-2.63,5.63-4.22,6.72-5.81s1.61-3.19,3.24-5.94c-1.13-2-1.39-1.8-2.46-2s-3-.92-7.5-4.81a11.14,11.14,0,0,1-3.47-5.15c-.63-1.82-1-3.82-1.9-6.16s-.34-4.35.11-6.26a7.46,7.46,0,0,0,.34-2.69,4.64,4.64,0,0,0-1.34-2.8,73.56,73.56,0,0,1-8.17-9,18.7,18.7,0,0,0-7.17-5.93,20.15,20.15,0,0,0-6.6-1.45,21.47,21.47,0,0,1-5.71-1,8.14,8.14,0,0,1-4.47-4.25,6.83,6.83,0,0,1-.56-5.82,10.67,10.67,0,0,1,3.24-4.14c1.43-1.21,3-2.33,4.26-3.47a5.48,5.48,0,0,0,2.12-3.81c-.29-2.84-.3-5.38-.56-8.17a33.25,33.25,0,0,0-2.12-9.4c2.18-1.52,4.1-4.12,6.26-7.61S542.27,69,545,64.13c-2.27-4.18-4.54-6.89-6.94-8.61A15,15,0,0,0,530,52.83c-.78-.06-1-.43-1-1a5.08,5.08,0,0,1,.78-2.23c1-1.84,2.78-4.12,3.92-6.16a29.64,29.64,0,0,0,3.35-5.6c-12.45-.22-31.33-4.88-47.11,1.46-11.62,4.67-17.34,9-32,13.65-14.29,4.54-18.85,4.34-32.34,14.55-8.47,6.41-32.32,24.13-36.93,33.35-4.34,8.67-5.93,13.87-5.93,26.63,0,13.63-7.52,25.79-1.9,47.68,2.53,9.86,2.36,16.19-5.94,23.5,4.72,7.52,15,12.53,23.06,12.53s18.16,7.81,24.84,1.68C427.71,208.34,432,208.88,432.41,212.53ZM297.24,81.83c-15,12-20.78,8-14.91,19.77,3.66,7.31,25.11-8.56,27.75-10.13C335,76.68,333.87,74.32,328.75,67.13S304.62,75.88,297.24,81.83Zm35.39-26c6.41,15,40.29-9.76,59.59-15.57,30.71-9.25,19.53-25.62-5.82-12.13C362.59,40.82,327.89,44.76,332.63,55.86ZM414,23.51c15.13,23,13.87,2,57.6,3.45,7.8.37,14.91,0,21.6-3.36,3-1.5-12.21-14.42-18.76-12.85C423.49,23,412.36,10.1,414,23.51Zm89.69-.34c24.29-1.09,32.93-5.42,43.77-9.61C571,4.43,539.59,4,529.21,3.54,514.48,2.85,506.13,11.66,503.67,23.17Z"/></g></g></g></g></svg>